<svg id="Layer_1" data-name="Layer 1" xmlns="http://www.w3.org/2000/svg" viewBox="0 0 15 12"><path id="Rectangle_1263" data-name="Rectangle 1263" d="M94,93.68h13a1,1,0,0,1,1,1h0a1,1,0,0,1-1,1H94a1,1,0,0,1-1-1h0A1,1,0,0,1,94,93.68Z" transform="translate(-93 -93.68)"/><path id="Rectangle_1265" data-name="Rectangle 1265" d="M94,103.68h13a1,1,0,0,1,1,1h0a1,1,0,0,1-1,1H94a1,1,0,0,1-1-1h0A1,1,0,0,1,94,103.68Z" transform="translate(-93 -93.68)"/><path id="Rectangle_1274" data-name="Rectangle 1274" d="M94,98.68h13a1,1,0,0,1,1,1h0a1,1,0,0,1-1,1H94a1,1,0,0,1-1-1h0A1,1,0,0,1,94,98.68Z" transform="translate(-93 -93.68)"/></svg>