<svg id="Layer_1" data-name="Layer 1" xmlns="http://www.w3.org/2000/svg" viewBox="0 0 16.23 16.23"><defs><style>.cls-1{fill:#05412d;}</style></defs><path id="facebook" class="cls-1" d="M107.72,91.56H93.29a.9.9,0,0,0-.9.9h0v14.43a.9.9,0,0,0,.9.9h7.76V101.5H98.94V99.05h2.11v-1.8A3,3,0,0,1,103.7,94a2.77,2.77,0,0,1,.5,0c.63,0,1.26,0,1.89.1V96.3h-1.3c-1,0-1.21.49-1.21,1.19v1.57H106l-.31,2.45h-2.11v6.28h4.13a.9.9,0,0,0,.9-.9h0V92.46A.9.9,0,0,0,107.72,91.56Z" transform="translate(-92.39 -91.56)"/></svg>