<svg id="Layer_1" data-name="Layer 1" xmlns="http://www.w3.org/2000/svg" viewBox="0 0 17.34 17.35"><defs><style>.cls-1{fill:#05412d;}</style></defs><path id="Path_338" data-name="Path 338" class="cls-1" d="M100.5,92.57c2.32,0,2.59,0,3.5.05a5,5,0,0,1,1.62.3,2.87,2.87,0,0,1,1.64,1.65,4.64,4.64,0,0,1,.3,1.61c0,.91,0,1.19,0,3.5s0,2.59,0,3.51a4.93,4.93,0,0,1-.3,1.61,2.88,2.88,0,0,1-1.65,1.65,4.89,4.89,0,0,1-1.61.3c-.91,0-1.19,0-3.5,0s-2.59,0-3.51,0a4.93,4.93,0,0,1-1.61-.3,2.9,2.9,0,0,1-1.64-1.65,4.46,4.46,0,0,1-.3-1.61c0-.92,0-1.19,0-3.51s0-2.59,0-3.5a4.64,4.64,0,0,1,.3-1.61,2.87,2.87,0,0,1,1.64-1.65,4.93,4.93,0,0,1,1.61-.3c.92,0,1.19-.05,3.51-.05m0-1.56c-2.36,0-2.65,0-3.58,0a6.26,6.26,0,0,0-2.1.4A4.41,4.41,0,0,0,92.28,94a6.26,6.26,0,0,0-.4,2.1c0,.93,0,1.22,0,3.58s0,2.65,0,3.58a6.26,6.26,0,0,0,.4,2.1,4.41,4.41,0,0,0,2.54,2.54,6.26,6.26,0,0,0,2.1.4c.93,0,1.22,0,3.58,0s2.65,0,3.57,0a6.32,6.32,0,0,0,2.11-.4,4.41,4.41,0,0,0,2.54-2.54,6.52,6.52,0,0,0,.4-2.1c0-.93,0-1.22,0-3.58s0-2.65,0-3.58a6.52,6.52,0,0,0-.4-2.1,4.41,4.41,0,0,0-2.54-2.54,6.26,6.26,0,0,0-2.1-.4c-.93,0-1.23,0-3.58,0Z" transform="translate(-91.83 -91.01)"/><path id="Path_339" data-name="Path 339" class="cls-1" d="M100.5,95.23A4.45,4.45,0,1,0,105,99.68a4.46,4.46,0,0,0-4.45-4.45Zm0,7.34a2.89,2.89,0,1,1,2.89-2.89h0A2.89,2.89,0,0,1,100.5,102.57Z" transform="translate(-91.83 -91.01)"/><circle id="Ellipse_50" data-name="Ellipse 50" class="cls-1" cx="13.3" cy="4.04" r="1.04"/></svg>